<svg width="24" height="24" viewBox="0 0 24 24" fill="none" xmlns="http://www.w3.org/2000/svg">
<path fill-rule="evenodd" clip-rule="evenodd" d="M8.00026 20H10.0003C10.9595 20 11.5788 19.9989 12.0527 19.9666C12.5087 19.9355 12.6824 19.8822 12.7656 19.8478C13.2557 19.6448 13.645 19.2554 13.848 18.7654C13.8825 18.6821 13.9357 18.5085 13.9668 18.0525C13.9804 17.8536 13.9902 16.6851 13.9949 16C12.1331 16 11.2019 15.9998 10.4672 15.6955C9.48708 15.2895 8.70838 14.5108 8.30241 13.5307C7.99824 12.7964 7.99792 11.8657 7.99792 10.0057C7.28817 10.0103 6.16521 10.0186 5.94778 10.0334C5.49179 10.0645 5.31812 10.1178 5.2349 10.1522C4.74484 10.3552 4.35549 10.7446 4.15251 11.2346C4.11803 11.3179 4.0648 11.4915 4.03369 11.9475C4.00135 12.4215 4.00027 13.0408 4.00027 14V16C4.00027 16.9592 4.00135 17.5785 4.03369 18.0525C4.0648 18.5085 4.11803 18.6821 4.15251 18.7654C4.35549 19.2554 4.74484 19.6448 5.2349 19.8478C5.31812 19.8822 5.49179 19.9355 5.94778 19.9666C6.42175 19.9989 7.04102 20 8.00026 20ZM7.99792 8.00802C6.7461 8.02697 4.98586 8.09061 4.46953 8.30448C3.48942 8.71046 2.71072 9.48915 2.30475 10.4693C2.00027 11.2044 2.00027 12.1362 2.00027 14V16C2.00027 17.8638 2.00027 18.7956 2.30475 19.5307C2.71072 20.5108 3.48942 21.2895 4.46953 21.6955C5.20461 22 6.1365 22 8.00026 22H10.0003C11.864 22 12.7959 22 13.531 21.6955C14.5111 21.2895 15.2898 20.5108 15.6958 19.5307C15.9402 18.9407 15.9884 18.2238 15.9979 17V16C17.8617 16 18.7936 16 19.5287 15.6955C20.5088 15.2895 21.2875 14.5108 21.6934 13.5307C21.9979 12.7956 21.9979 11.8638 21.9979 10V8C21.9979 6.13623 21.9979 5.20435 21.6934 4.46926C21.2875 3.48915 20.5088 2.71046 19.5287 2.30448C18.7936 2 17.8617 2 15.9979 2H13.9979C12.1342 2 11.2023 2 10.4672 2.30448C9.48708 2.71046 8.70838 3.48915 8.30241 4.46926C7.99792 5.20435 7.99792 6.13623 7.99792 8V8.00802ZM15.9979 14H13.9979C13.0387 14 12.4194 13.9989 11.9454 13.9666C11.4894 13.9355 11.3158 13.8822 11.2326 13.8478C10.7425 13.6448 10.3532 13.2554 10.1502 12.7654C10.1157 12.6821 10.0625 12.5085 10.0313 12.0525C9.99901 11.5785 9.99792 10.9592 9.99792 10V8C9.99792 7.04075 9.99901 6.42148 10.0313 5.94752C10.0625 5.49152 10.1157 5.31786 10.1502 5.23463C10.3532 4.74458 10.7425 4.35523 11.2326 4.15224C11.3158 4.11777 11.4894 4.06453 11.9454 4.03342C12.4194 4.00108 13.0387 4 13.9979 4H15.9979C16.9572 4 17.5764 4.00108 18.0504 4.03342C18.5064 4.06453 18.6801 4.11777 18.7633 4.15224C19.2533 4.35523 19.6427 4.74458 19.8457 5.23463C19.8802 5.31786 19.9334 5.49152 19.9645 5.94752C19.9968 6.42148 19.9979 7.04075 19.9979 8V10C19.9979 10.9592 19.9968 11.5785 19.9645 12.0525C19.9334 12.5085 19.8802 12.6821 19.8457 12.7654C19.6427 13.2554 19.2533 13.6448 18.7633 13.8478C18.6801 13.8822 18.5064 13.9355 18.0504 13.9666C17.5764 13.9989 16.9572 14 15.9979 14Z" fill="black"/>
</svg>
