<svg width="24" height="24" viewBox="0 0 24 24" fill="none" xmlns="http://www.w3.org/2000/svg">
    <path fill-rule="evenodd" clip-rule="evenodd"
        d="M4.929 4.93L4.93 4.928L4.932 4.929L5.459 4.401C5.56234 4.29779 5.70108 4.23777 5.84706 4.23313C5.99304 4.22848 6.13531 4.27956 6.245 4.376L7.455 5.437C7.787 5.742 8.229 5.929 8.715 5.929C9.229 5.929 9.695 5.719 10.031 5.381C10.349 5.061 10.551 4.627 10.57 4.146H10.574L10.679 2.539C10.6886 2.39335 10.7533 2.25683 10.8599 2.15711C10.9665 2.05738 11.107 2.00193 11.253 2.002H11.999V2V2.002H12.746C13.049 2.002 13.3 2.237 13.32 2.539L13.425 4.146H13.43C13.449 4.63 13.653 5.066 13.974 5.386C14.31 5.721 14.774 5.929 15.286 5.929C15.778 5.929 16.226 5.737 16.558 5.425L17.754 4.375C17.8638 4.27869 18.0062 4.22779 18.1521 4.23262C18.2981 4.23745 18.4368 4.29765 18.54 4.401L19.068 4.929L19.07 4.927V4.929L19.069 4.931L19.597 5.458C19.7004 5.56121 19.7606 5.69988 19.7654 5.84586C19.7702 5.99184 19.7193 6.13419 19.623 6.244L18.563 7.456C18.2463 7.79833 18.0706 8.24764 18.071 8.714C18.071 9.229 18.281 9.694 18.619 10.031C18.939 10.349 19.372 10.551 19.854 10.57V10.574L21.46 10.679C21.763 10.699 21.998 10.95 21.998 11.253V12H22V12.002H21.998V12.748C21.9981 12.894 21.9426 13.0345 21.8429 13.1411C21.7432 13.2477 21.6066 13.3124 21.461 13.322L19.854 13.429V13.43C19.37 13.45 18.934 13.653 18.614 13.974C18.279 14.31 18.071 14.774 18.071 15.286C18.071 15.772 18.258 16.214 18.564 16.546H18.562L19.624 17.757C19.824 17.985 19.812 18.329 19.598 18.543L19.07 19.071V19.073H19.069L18.541 19.6C18.4378 19.7031 18.2994 19.7631 18.1536 19.7679C18.0079 19.7727 17.8658 19.722 17.756 19.626L16.588 18.605C16.2412 18.2625 15.7734 18.0706 15.286 18.071C14.771 18.071 14.306 18.281 13.969 18.619C13.651 18.939 13.449 19.374 13.429 19.857H13.425L13.32 21.464C13.3107 21.6038 13.2508 21.7354 13.1513 21.8341C13.0519 21.9328 12.9199 21.9918 12.78 22H11.22C11.0801 21.9918 10.9481 21.9328 10.8487 21.8341C10.7492 21.7354 10.6893 21.6038 10.68 21.464L10.575 19.857H10.571C10.5535 19.3883 10.3587 18.9436 10.026 18.613C9.85397 18.441 9.64973 18.3046 9.42495 18.2116C9.20017 18.1186 8.95926 18.0708 8.716 18.071C8.212 18.071 7.756 18.271 7.421 18.597L6.244 19.627C6.13412 19.7229 5.99192 19.7734 5.84617 19.7684C5.70043 19.7634 5.56203 19.7032 5.459 19.6L4.931 19.072L4.93 19.071L4.402 18.543C4.29865 18.4398 4.23845 18.3011 4.23362 18.1551C4.22879 18.0092 4.27969 17.8668 4.376 17.757L5.438 16.547L5.437 16.546C5.75453 16.2033 5.93066 15.7532 5.93 15.286C5.93 14.771 5.72 14.306 5.382 13.969C5.05248 13.6402 4.61114 13.4478 4.146 13.43V13.429L2.539 13.322C2.39335 13.3124 2.25683 13.2477 2.15711 13.1411C2.05738 13.0345 2.00193 12.894 2.002 12.748V12.002H2V12H2.001V11.253C2.001 10.95 2.236 10.699 2.539 10.679L4.145 10.574V10.57C4.61304 10.552 5.05687 10.3573 5.387 10.025C5.722 9.689 5.929 9.225 5.929 8.715C5.929 8.225 5.739 7.78 5.43 7.448L4.376 6.244C4.27969 6.13419 4.22879 5.99184 4.23362 5.84586C4.23845 5.69988 4.29865 5.56121 4.402 5.458L4.93 4.931L4.929 4.929V4.93ZM16.286 12C16.286 13.1367 15.8344 14.2269 15.0307 15.0307C14.2269 15.8344 13.1367 16.286 12 16.286C10.8633 16.286 9.77312 15.8344 8.96934 15.0307C8.16556 14.2269 7.714 13.1367 7.714 12C7.714 10.8633 8.16556 9.77312 8.96934 8.96934C9.77312 8.16556 10.8633 7.714 12 7.714C13.1367 7.714 14.2269 8.16556 15.0307 8.96934C15.8344 9.77312 16.286 10.8633 16.286 12V12Z"
        fill="black" />
</svg>
