<svg width="32" height="32" viewBox="0 0 32 32" fill="none" xmlns="http://www.w3.org/2000/svg">
<ellipse cx="15.9999" cy="16.0001" rx="15.9999" ry="16.0001" transform="matrix(-4.37117e-08 -1 -1 4.37111e-08 32.0001 31.9998)" fill="#0064FF"/>
<path d="M13.857 22.1735L9.8262 22.1735C8.852 22.1735 8.06226 21.3838 8.06226 20.4096V10.708C8.06226 9.73383 8.852 8.94409 9.8262 8.94409H20.4098C21.384 8.94409 22.1738 9.73383 22.1738 10.708V12.8233C21.4801 12.5953 20.7389 12.4719 19.9689 12.4719C19.8595 12.4719 19.7508 12.4744 19.6427 12.4793C19.6051 12.4745 19.5668 12.4719 19.5279 12.4719H10.7082C10.2211 12.4719 9.8262 12.8668 9.8262 13.3539V19.5276C9.8262 20.0147 10.2211 20.4096 10.7082 20.4096H13.1354C13.2964 21.0354 13.5412 21.6275 13.857 22.1735Z" fill="white"/>
<path fill-rule="evenodd" clip-rule="evenodd" d="M19.9689 24.8194C17.0463 24.8194 14.677 22.4502 14.677 19.5276C14.677 16.6051 17.0463 14.2359 19.9689 14.2359C22.8914 14.2359 25.2607 16.6051 25.2607 19.5276C25.2607 22.4502 22.8914 24.8194 19.9689 24.8194ZM20.1501 16.2203C20.235 16.2203 20.3061 16.2845 20.3147 16.369L20.6268 19.4491L22.6186 20.7574C22.7043 20.8137 22.733 20.9259 22.6849 21.0164L22.4956 21.3723C22.4484 21.4611 22.3423 21.5006 22.2485 21.4642L19.7355 20.4878C19.4543 20.3785 19.2902 20.0982 19.3085 19.8121L19.6243 16.3705C19.6321 16.2854 19.7035 16.2203 19.789 16.2203H20.1501Z" fill="white"/>
</svg>
