<svg width="25" height="24" viewBox="0 0 25 24" fill="none" xmlns="http://www.w3.org/2000/svg">
    <path fill-rule="evenodd" clip-rule="evenodd"
        d="M5.29199 4.92C6.76567 3.45 8.16918 3.06 9.16167 3.01V3H9.18172L16.8609 19.42L15.0464 20.27L12.51 14.84L9.9737 20.27L8.15916 19.42L11.4073 12.47L10.2343 9.95998C9.62282 10.26 8.97119 10.69 8.29951 11.36C6.31454 13.32 4.46993 13.37 3.56767 13.23C3.46742 13.22 3.4173 13.21 3.30702 13.16C3.18672 13.11 2.99624 12.96 2.91604 12.86C2.83584 12.76 2.79574 12.68 2.72557 12.53L1.00125 8.84C0.971203 8.77551 0.942476 8.71399 0.915081 8.65531C0.640872 8.06807 0.5 7.76637 0.5 7.63C0.5 7.36 0.530075 7.29 0.720551 7.13C0.830827 7.04 1.29198 6.93 2.22431 6.72C3.10652 6.52 4.1792 6.03 5.29199 4.92ZM22.9342 6.7734C23.7674 6.96087 24.1852 7.05489 24.2895 7.13998C24.48 7.30998 24.5 7.37998 24.5 7.64998C24.5 7.79998 24.3296 8.16998 23.9887 8.88998L22.2243 12.66C22.1541 12.82 22.114 12.9 22.0338 13C21.9536 13.1 21.7632 13.26 21.6429 13.31C21.5471 13.3498 21.5022 13.3579 21.4373 13.3696C21.4207 13.3727 21.4027 13.3759 21.3822 13.38C20.4799 13.53 18.6253 13.5 16.6504 11.51C15.9787 10.83 15.317 10.39 14.7055 10.1L13.6228 7.79998L15.8484 3.00998C16.8408 3.05998 18.2444 3.44998 19.718 4.92998C20.8308 6.03998 21.9035 6.53998 22.7857 6.73998C22.8366 6.75144 22.8861 6.76258 22.9342 6.7734Z"
        fill="#21201F" />
</svg>
